<svg width="21" height="21" viewBox="0 0 21 21" fill="none" xmlns="http://www.w3.org/2000/svg">
<path d="M13.0732 4.54125C13.404 4.15999 13.6563 3.71715 13.8154 3.23814C13.9746 2.75914 14.0376 2.25341 14.0007 1.75C12.9852 1.83198 12.0425 2.30961 11.3757 3.08C11.0565 3.44923 10.8145 3.87877 10.6642 4.34319C10.5139 4.80761 10.4583 5.29746 10.5007 5.78375C10.9961 5.78788 11.4858 5.67796 11.9319 5.4625C12.378 5.24704 12.7685 4.93183 13.0732 4.54125ZM15.2782 11.0512C15.2841 10.3808 15.4607 9.72284 15.7914 9.13955C16.1221 8.55626 16.5959 8.06685 17.1682 7.7175C16.8071 7.19708 16.3296 6.76798 15.7737 6.46421C15.2178 6.16045 14.5988 5.99038 13.9657 5.9675C12.6007 5.8275 11.3407 6.76375 10.6145 6.76375C9.88825 6.76375 8.8645 5.985 7.727 6.0025C6.98336 6.027 6.25876 6.24381 5.62389 6.63179C4.98901 7.01977 4.46553 7.56567 4.1045 8.21625C2.5645 10.8937 3.71075 14.875 5.25075 17.0362C5.95075 18.095 6.82575 19.2937 7.98075 19.25C9.13575 19.2062 9.512 18.5325 10.8507 18.5325C12.1895 18.5325 12.6007 19.25 13.7382 19.2237C14.8757 19.1975 15.6807 18.1388 16.4157 17.08C16.9364 16.3113 17.3431 15.4714 17.6232 14.5862C16.9298 14.2905 16.3382 13.7981 15.9214 13.1699C15.5047 12.5417 15.2811 11.8051 15.2782 11.0512Z" fill="white"/>
</svg>
