<svg width="16" height="16" viewBox="0 0 16 16" fill="none" xmlns="http://www.w3.org/2000/svg">
<g clip-path="url(#clip0_241_9608)">
<path d="M15.9924 8.14967C15.9924 7.49416 15.9379 7.01581 15.8201 6.51974H8.16016V9.4784H12.6564C12.5658 10.2137 12.0763 11.321 10.9884 12.065L10.9732 12.1641L13.3951 13.9975L13.5629 14.0139C15.1039 12.6231 15.9924 10.5768 15.9924 8.14967Z" fill="#4285F4"/>
<path d="M8.1594 15.945C10.3622 15.945 12.2114 15.2363 13.5622 14.0139L10.9877 12.065C10.2987 12.5345 9.37409 12.8623 8.1594 12.8623C6.00194 12.8623 4.17082 11.4716 3.51807 9.54932L3.42239 9.55726L0.904028 11.4618L0.871094 11.5513C2.21271 14.1556 4.96848 15.945 8.1594 15.945Z" fill="#34A853"/>
<path d="M3.5172 9.5493C3.34497 9.05324 3.24529 8.5217 3.24529 7.97251C3.24529 7.42326 3.34497 6.89177 3.50814 6.39571L3.50358 6.29006L0.953652 4.35492L0.870223 4.3937C0.31728 5.47443 0 6.68805 0 7.97251C0 9.25697 0.31728 10.4705 0.870223 11.5513L3.5172 9.5493Z" fill="#FBBC05"/>
<path d="M8.1594 3.08269C9.69137 3.08269 10.7248 3.72934 11.314 4.26974L13.6165 2.07286C12.2024 0.788397 10.3622 0 8.1594 0C4.96848 0 2.21271 1.78937 0.871094 4.39371L3.50901 6.39573C4.17082 4.47347 6.00194 3.08269 8.1594 3.08269Z" fill="#EB4335"/>
</g>
<defs>
<clipPath id="clip0_241_9608">
<rect width="16" height="16" fill="white"/>
</clipPath>
</defs>
</svg>
